<?xml version="1.0" standalone="no"?>
<!DOCTYPE svg PUBLIC "-//W3C//DTD SVG 20010904//EN"
 "http://www.w3.org/TR/2001/REC-SVG-20010904/DTD/svg10.dtd">
<svg version="1.0" xmlns="http://www.w3.org/2000/svg"
 width="2480.000000pt" height="3508.000000pt" viewBox="0 0 2480.000000 3508.000000"
 preserveAspectRatio="xMidYMid meet">

<g transform="translate(0.000000,3508.000000) scale(0.100000,-0.100000)"
fill="#000000" stroke="none">
<path d="M18560 20590 c-220 -28 -430 -151 -676 -395 -154 -153 -273 -297
-494 -602 -479 -658 -778 -1191 -1140 -2028 -317 -734 -421 -881 -912 -1278
-114 -92 -276 -232 -360 -310 -197 -182 -268 -244 -403 -351 -82 -65 -111 -83
-113 -71 -22 102 551 1310 916 1934 87 150 107 206 81 237 -20 25 -69 43 -144
53 -207 30 -395 -85 -565 -344 -39 -60 -128 -224 -196 -362 -213 -434 -363
-666 -579 -893 -44 -47 -134 -145 -199 -219 -133 -149 -223 -228 -308 -272
-32 -16 -60 -29 -63 -29 -3 0 -5 20 -5 45 0 57 36 151 104 273 30 53 112 225
184 382 227 500 593 1246 683 1394 l42 70 -19 35 c-23 44 -51 49 -149 27 -38
-9 -128 -23 -200 -31 -71 -8 -155 -22 -185 -31 -80 -23 -149 -97 -225 -244
-49 -95 -73 -129 -140 -196 -66 -67 -260 -211 -308 -230 -10 -4 -10 23 1 133
21 216 21 427 -1 488 -47 137 -169 198 -318 161 -115 -29 -241 -101 -472 -269
-151 -109 -200 -99 -280 59 -29 57 -93 120 -132 130 -84 21 -187 -30 -310
-151 -101 -101 -178 -199 -345 -445 -375 -550 -795 -1072 -1336 -1660 -326
-353 -402 -422 -496 -444 -23 -5 -28 -2 -37 26 -29 81 -6 203 74 393 25 61 78
187 116 280 82 199 209 454 374 755 238 433 340 648 420 883 66 195 60 267
-26 336 -108 88 -188 92 -344 17 -228 -108 -276 -147 -820 -669 -283 -272
-401 -379 -403 -367 -8 44 70 232 205 500 155 304 172 355 139 404 -52 81
-234 85 -379 9 -92 -49 -219 -183 -317 -336 -41 -65 -109 -170 -152 -235 -124
-190 -352 -425 -918 -947 -118 -109 -343 -326 -500 -483 -283 -284 -367 -355
-436 -368 -88 -16 -130 46 -128 191 2 118 25 210 122 485 44 124 121 351 172
505 454 1373 773 2069 1269 2772 36 50 45 73 49 116 4 49 2 56 -27 85 -58 57
-130 53 -270 -17 -376 -190 -692 -533 -953 -1037 -113 -218 -211 -451 -423
-1014 -230 -609 -352 -860 -596 -1222 -111 -166 -431 -601 -555 -757 -129
-161 -174 -189 -222 -138 -42 45 -57 134 -56 352 1 223 14 365 50 565 77 420
197 771 562 1645 364 874 497 1162 850 1847 45 88 49 146 10 184 l-26 27 -112
-37 c-316 -104 -561 -247 -1120 -651 -306 -221 -491 -370 -649 -521 -174 -167
-243 -262 -272 -378 -16 -64 -2 -96 43 -96 28 0 44 13 123 97 386 414 557 559
898 765 122 74 176 93 192 69 3 -5 -18 -45 -48 -88 -88 -131 -446 -894 -615
-1314 -273 -676 -420 -1171 -542 -1823 -57 -305 -70 -403 -70 -541 0 -146 18
-236 66 -334 89 -181 301 -314 476 -298 92 8 152 44 290 174 189 179 281 284
391 448 81 121 359 518 373 534 12 14 10 -20 -12 -159 -61 -388 -66 -430 -68
-565 -1 -135 0 -142 27 -198 34 -68 103 -142 170 -181 68 -40 152 -46 231 -16
111 42 323 226 716 620 195 195 558 547 805 782 248 234 470 447 495 473 25
25 57 53 72 61 27 14 70 19 80 9 2 -3 -22 -71 -54 -153 -73 -180 -183 -508
-277 -823 -39 -129 -89 -284 -111 -343 -72 -191 -73 -265 -5 -325 62 -54 157
-64 318 -35 151 28 179 61 202 240 19 140 48 268 105 454 81 262 163 422 319
618 107 135 575 609 703 712 94 76 185 137 193 129 2 -3 -28 -83 -66 -179 -84
-211 -223 -497 -358 -738 -176 -315 -265 -501 -343 -717 -112 -311 -124 -506
-42 -674 54 -109 133 -163 250 -169 159 -9 353 78 565 254 233 193 1471 1680
1880 2258 64 91 104 135 169 189 47 39 102 86 123 106 20 19 37 30 37 24 0
-53 -110 -320 -355 -868 -286 -638 -535 -1243 -535 -1301 0 -33 63 -100 107
-115 50 -16 234 -6 298 16 114 40 178 110 286 312 34 65 118 222 187 348 148
272 241 462 311 638 66 164 85 235 116 432 14 88 34 193 45 233 39 143 105
239 196 282 49 24 160 47 171 36 17 -17 7 -338 -13 -441 -22 -117 -23 -225 -1
-275 28 -64 74 -117 122 -140 40 -19 52 -21 82 -12 44 14 164 91 245 157 97
80 137 107 183 121 24 7 45 10 48 8 6 -6 -134 -332 -233 -544 -172 -368 -249
-603 -291 -885 -33 -229 -23 -322 47 -403 44 -52 107 -77 174 -69 107 13 132
34 672 564 130 128 242 233 249 233 9 0 10 -20 5 -78 -7 -93 -32 -185 -87
-329 -55 -144 -69 -197 -69 -268 0 -107 62 -200 164 -246 97 -44 137 -20 438
266 423 402 781 725 981 884 146 117 321 233 325 216 2 -7 -67 -295 -152 -639
-86 -345 -156 -645 -156 -667 0 -55 14 -78 63 -99 58 -25 186 -44 253 -37 118
12 185 80 334 344 300 529 632 945 1240 1554 140 140 303 308 363 371 120 131
193 178 274 178 23 0 43 -3 43 -6 0 -3 -13 -23 -29 -43 -36 -45 -180 -267
-251 -386 -29 -49 -111 -178 -181 -286 -156 -240 -270 -438 -360 -623 -278
-577 -367 -1060 -244 -1312 55 -112 177 -198 327 -228 93 -19 149 -20 248 -2
228 41 446 161 880 486 482 360 899 609 1172 701 168 57 295 41 340 -41 25
-48 23 -92 -12 -195 -16 -49 -30 -101 -30 -116 0 -38 33 -75 85 -95 134 -51
480 52 609 180 42 43 82 151 97 264 21 154 -25 297 -117 367 -143 109 -339
112 -582 7 -174 -75 -641 -334 -957 -531 -229 -143 -701 -458 -854 -571 -266
-195 -422 -229 -492 -107 -22 39 -24 52 -23 167 1 105 6 143 32 241 81 306
197 606 363 939 197 394 291 549 535 880 278 379 363 559 352 749 -5 88 -25
134 -71 161 -64 40 -158 18 -342 -80 -581 -306 -1138 -785 -1750 -1505 -65
-77 -193 -225 -284 -330 -91 -104 -166 -192 -168 -194 -38 -53 129 464 363
1117 154 431 201 493 769 1015 132 121 341 314 465 428 404 371 781 767 976
1024 272 357 350 644 239 872 -96 195 -300 293 -545 263z m236 -201 c29 -8 54
-23 74 -46 64 -73 38 -175 -124 -488 -231 -444 -533 -848 -966 -1289 -233
-238 -426 -418 -527 -491 -43 -32 -97 -76 -120 -98 -24 -23 -43 -39 -43 -36 0
3 35 82 79 175 43 93 142 309 221 479 399 872 683 1305 1074 1642 113 97 176
136 243 152 21 5 39 9 41 10 2 1 23 -4 48 -10z"/>
</g>
</svg>
